<svg xmlns="http://www.w3.org/2000/svg" width="32" height="32"><path d="M22.838.787a3 3 0 0 0-3 3 3 3 0 0 0 3 3 3 3 0 0 0 3-3 3 3 0 0 0-3-3zM12.713 7.666c-.51 0-.986.32-1.262.75L8.5 13.045a1.518 1.518 0 0 0 1.26 2.332c.493 0 .977-.298 1.263-.744l2.51-3.967h3.08l-4.68 7.215-6.888 10.213a1.517 1.517 0 0 0 1.24 2.363c.482 0 .955-.226 1.244-.654l5.828-8.614 4.176 2.077-3.685 5.625a1.502 1.502 0 0 0 1.254 2.322c.488 0 .967-.238 1.255-.678l4.612-7.037a1.501 1.501 0 0 0-.588-2.166l-5.344-2.656 4.02-6.145 1.576 3.985a1.5 1.5 0 0 0 1.394.949c.052 0 .105-.008.157-.014.034.002.067.014.101.014.49 0 .97-.24 1.258-.682l3.428-5.262a1.501 1.501 0 1 0-2.514-1.636l-2.004 3.076-1.672-4.227-.008-.015c-.022-.055-.05-.106-.08-.158-.019-.035-.035-.071-.056-.104-.023-.035-.054-.066-.08-.1-.036-.044-.068-.09-.108-.13-.02-.021-.046-.037-.068-.057a1.492 1.492 0 0 0-.162-.13c-.004-.004-.008-.008-.012-.01-.025-.017-.052-.027-.078-.042a1.484 1.484 0 0 0-.172-.088c-.035-.014-.07-.023-.105-.035a1.494 1.494 0 0 0-.178-.049c-.033-.006-.065-.007-.098-.011a1.458 1.458 0 0 0-.193-.016c-.031 0-.06.004-.092.006-.059.004-.119-.054-.178-.043-.083-.014-.166-.086-.254-.086h-6.146z"/></svg>